<svg xmlns="http://www.w3.org/2000/svg" viewBox="0 0 760 470" role="img" aria-labelledby="title desc"><title id="title">ClinicOps evidence-control workflow</title><desc id="desc">A restrained diagram connecting approved sources, observations, accountable owners and closure evidence.</desc><defs><linearGradient id="bg" x1="0" y1="0" x2="1" y2="1"><stop offset="0" stop-color="#f7fbfa"/><stop offset="1" stop-color="#eef5f3"/></linearGradient><filter id="shadow" x="-20%" y="-20%" width="140%" height="140%"><feDropShadow dx="0" dy="8" stdDeviation="12" flood-color="#102820" flood-opacity=".08"/></filter></defs><rect width="760" height="470" rx="30" fill="url(#bg)"/><g fill="none" stroke="#bfd8d2" stroke-width="2"><path d="M184 118C295 96 354 96 464 118"/><path d="M184 352C295 374 354 374 464 352"/><path d="M145 164C114 225 114 247 145 306"/><path d="M606 164C637 225 637 247 606 306"/></g><g filter="url(#shadow)"><rect x="64" y="68" width="240" height="118" rx="18" fill="#fff" stroke="#cfdedb"/><rect x="456" y="68" width="240" height="118" rx="18" fill="#fff" stroke="#cfdedb"/><rect x="64" y="284" width="240" height="118" rx="18" fill="#fff" stroke="#cfdedb"/><rect x="456" y="284" width="240" height="118" rx="18" fill="#fff" stroke="#cfdedb"/></g><g font-family="system-ui,-apple-system,'Segoe UI',sans-serif"><g fill="#0f5c52" font-size="13" font-weight="700" letter-spacing="1.3"><text x="88" y="101">SOURCE</text><text x="480" y="101">OBSERVATION</text><text x="88" y="317">OWNER</text><text x="480" y="317">CLOSURE</text></g><g fill="#1c2430" font-size="20" font-weight="700"><text x="88" y="132">Approved evidence</text><text x="480" y="132">What changed?</text><text x="88" y="348">Who decides?</text><text x="480" y="348">What proves it?</text></g><g fill="#5b6572" font-size="14"><text x="88" y="158">Authority + provenance</text><text x="480" y="158">Difference + uncertainty</text><text x="88" y="374">Named accountable reviewer</text><text x="480" y="374">Decision + retained evidence</text></g><circle cx="380" cy="235" r="68" fill="#0f5c52"/><text x="380" y="226" text-anchor="middle" fill="#fff" font-size="14" font-weight="700">CLINICOPS</text><text x="380" y="249" text-anchor="middle" fill="#fff" font-size="12">evidence-control</text><text x="380" y="267" text-anchor="middle" fill="#fff" font-size="12">operating layer</text></g><g fill="#0f5c52"><circle cx="304" cy="118" r="5"/><circle cx="456" cy="118" r="5"/><circle cx="304" cy="352" r="5"/><circle cx="456" cy="352" r="5"/><circle cx="145" cy="186" r="5"/><circle cx="145" cy="284" r="5"/><circle cx="606" cy="186" r="5"/><circle cx="606" cy="284" r="5"/></g></svg>